# xmcd CD database file generated by Grip 2.5
# 
# Track frame offsets:
#       150
#       14335
#       27015
#       40910
#       59510
#       71240
#       78607
#       91417
#       106410
#       119512
#       140282
#       153150
#       169392
#       187095
# 
# Disc length: 2654 seconds
# 
# Revision: 3
# Processed by: cddbd v1.4b41PL1 Copyright (c) Steve Scherf et al.
# Submitted via: Grip 2.5
# 
DISCID=c20a5c0e
DTITLE=The Delta Queens - (Mama's Got A) Monkey Lamp
DYEAR=1900
DGENRE=
TTITLE0=Terrified
TTITLE1=Linda Lee
TTITLE2=House Shoe Boogie
TTITLE3=Little Boy Walk
TTITLE4=Suzy
TTITLE5=Monkey Lamp
TTITLE6=Don't Cry
TTITLE7=Betsy
TTITLE8=Catchin' All Kinds
TTITLE9=She's Crazy
TTITLE10=Jackson
TTITLE11=Bumpy
TTITLE12=Terrified Accoustic
TTITLE13=Mail Order Bride
EXTD=
EXTT0=
EXTT1=
EXTT2=
EXTT3=
EXTT4=
EXTT5=
EXTT6=
EXTT7=
EXTT8=
EXTT9=
EXTT10=
EXTT11=
EXTT12=
EXTT13=
PLAYORDER=
